<svg xmlns="http://www.w3.org/2000/svg" xmlns:xlink="http://www.w3.org/1999/xlink" viewBox="0 0 222.27 321.99"><defs><style>.cls-1{fill:url(#radial-gradient);}.cls-2{fill:none;}.cls-3{fill:#491500;fill-opacity:0.7;}</style><radialGradient id="radial-gradient" cx="44.64" cy="268.6" r="0" gradientUnits="userSpaceOnUse"><stop offset="0" stop-color="#fff"/><stop offset="0.09" stop-color="#f5f5f5"/><stop offset="0.23" stop-color="#dadada"/><stop offset="0.42" stop-color="#adadad"/><stop offset="0.64" stop-color="#707070"/><stop offset="0.89" stop-color="#232323"/><stop offset="1"/></radialGradient></defs><title>Asset 1icon coffee</title><g id="Layer_2" data-name="Layer 2"><g id="Capa_1" data-name="Capa 1"><path class="cls-1" d="M44.64,268.6"/><path d="M130.26,101.09s9.62-7.83,14.19-13.7,10.43-16.47,7.66-27.07S141.67,43.86,136,37s-9-10.27-9.46-19.08S129.77,0,129.77,0s-10.11,11.74-12.72,22.17-.49,20.06,4.24,25.44,14.07,14.84,11.11,31a258.51,258.51,0,0,1-5.69,25.22Z"/><path d="M86.63,34.41s.2,8.25,2.44,12.82C92.41,54,102.61,62.68,104,72.59c2.27,15.89-5.86,21.11-8.41,28.9-1.4,4.28-1.37,4.79-1.37,4.79s-2.83-5.84-1.33-11.68,3.44-15.87-2.55-24.26S81.24,55.07,81.09,48,86.63,34.41,86.63,34.41Z"/><path d="M169.77,38.13s.2,8.25,2.44,12.82c3.34,6.8,13.53,15.46,15,25.37,2.27,15.89-5.86,21.11-8.41,28.9-1.4,4.28-1.37,4.79-1.37,4.79s-2.83-5.84-1.33-11.68,3.44-15.87-2.55-24.26-9.13-15.27-9.29-22.31S169.77,38.13,169.77,38.13Z"/><path class="cls-2" d="M46.38,184.19c0-2.95,0-6,.07-9.07C36.19,164.05,14.38,160.94,16,182.46c1.68,22.92,29.23,42.09,29.23,42.09a6,6,0,0,1,3.44-2.27c-.59-4.76-1.08-9.78-1.45-15.11C46.54,199.16,46.33,191.4,46.38,184.19Z"/><path d="M220.37,141s-30.35-23.33-86-20.87c-55.69-2.46-86,20.87-86,20.87q-.82,9.49-1.26,18.24c-6.51-5-24.72-16-41.49,2.1C-16.54,185.11,33.35,249.72,52,242.2c5.62,25.94,14.4,40.67,21.27,48.71,0,0,6.77,17.28,5.61,20.27,0,0,5.26,7.92,40.73,10.2a57.39,57.39,0,0,0,8.88.61c2,0,4,0,5.88,0s3.85,0,5.88,0a57.38,57.38,0,0,0,8.88-.61c35.47-2.29,40.73-10.2,40.73-10.2-1.16-3,5.61-20.27,5.61-20.27,9.5-11.12,22.67-35,26-83.73.65-8,.86-15.78.8-23C222.31,171.22,221.74,156.87,220.37,141ZM45.19,224.54S17.64,205.37,16,182.46c-1.58-21.52,20.23-18.4,30.49-7.33-.06,3.09-.08,6.12-.07,9.07-.06,7.21.15,15,.8,23,.37,5.33.86,10.36,1.45,15.11A6,6,0,0,0,45.19,224.54ZM82.7,255.13c-6.07-16.75-1.27-40.06,14-59.65,17.17-22,42.14-32.42,60.88-26.93.08.21,6.3,3.45-.26,10.4-3.34,3.54-6.08,10.28-7.74,14.39s-5.81,8.95-12.5,16.06-13.09,18.3-17,18.35-8.52-2.4-8.52-2.4,7.95,7.73,6.73,9.47-1.38,3.93-3.7,7.9S102.19,256.16,97,257.89,86.73,262.28,82.7,255.13Zm82.06-6.64C145.83,272.8,117.4,282.93,98.3,273.2c0-1.9-3.61-4.77,3.32-9.38,4.17-2.78,16.42-10.7,19.49-19.1s13.48-3,13.48-3-6.15-5.95-1.89-13.41a74.41,74.41,0,0,1,18.61-20.93c8.08-6.42,7.86-14.68,9.88-20.42s10.74-10.35,13.13-6.64C186.25,196.92,182.81,225.31,164.77,248.48Z"/><path class="cls-3" d="M161.2,187c-2,5.74-1.8,14-9.88,20.42a74.41,74.41,0,0,0-18.61,20.93c-4.27,7.46,1.89,13.41,1.89,13.41s-10.41-5.42-13.48,3-15.32,16.32-19.49,19.1c-6.93,4.61-3.36,7.49-3.32,9.38,19.09,9.73,47.53-.39,66.46-24.72,18-23.18,21.48-51.57,9.55-68.14C171.94,176.63,163.21,181.27,161.2,187Z"/><path class="cls-3" d="M114.58,242.72c2.32-4,2.48-6.16,3.7-7.9s-6.73-9.47-6.73-9.47,4.63,2.45,8.52,2.4,10.29-11.24,17-18.35,10.85-12,12.5-16.06,4.39-10.84,7.74-14.39c6.56-6.95.34-10.19.26-10.4-18.74-5.49-43.71,4.88-60.88,26.93-15.25,19.59-20.05,42.89-14,59.65,4,7.16,9.1,4.49,14.29,2.77S112.26,246.68,114.58,242.72Z"/></g></g></svg>