<?xml version="1.0" encoding="iso-8859-1"?>
<!-- Generator: Adobe Illustrator 19.0.0, SVG Export Plug-In . SVG Version: 6.00 Build 0)  -->
<svg version="1.1" id="Layer_1" xmlns="http://www.w3.org/2000/svg" xmlns:xlink="http://www.w3.org/1999/xlink" x="0px" y="0px"
	 viewBox="0 0 512 512" style="enable-background:new 0 0 512 512;" xml:space="preserve">
<rect x="231.12" y="160.81" style="fill:#E89D41;" width="49.755" height="78.22"/>
<rect x="259.97" y="160.81" style="fill:#C27A40;" width="20.908" height="78.22"/>
<rect x="171.24" y="248.56" style="fill:#73CBD1;" width="169.52" height="255.94"/>
<rect x="340.76" y="364.4" style="fill:#F6CC65;" width="50.734" height="140.1"/>
<rect x="370.59" y="364.4" style="fill:#E89D41;" width="20.908" height="140.1"/>
<path style="fill:#F6CC65;" d="M194.221,130.036V83.939c0-34.12,27.659-61.779,61.779-61.779l0,0
	c34.12,0,61.779,27.659,61.779,61.779v46.097c0,34.12-27.659,61.779-61.779,61.779l0,0
	C221.88,191.815,194.221,164.156,194.221,130.036z"/>
<path style="fill:#E89D41;" d="M256,22.16L256,22.16c-3.565,0-7.054,0.319-10.454,0.899c29.138,4.974,51.325,30.352,51.325,60.933
	v45.992c0,30.58-22.187,55.959-51.325,60.933c3.4,0.58,6.889,0.899,10.454,0.899l0,0c34.12,0,61.779-27.683,61.779-61.832V83.991
	C317.779,49.843,290.12,22.16,256,22.16z"/>
<path style="fill:#854437;" d="M316.624,105.823h-0.064c-3.091,0-5.491-2.617-5.323-5.706c1.53-28.116-15.249-49.464-25.531-38.538
	C274.75,73.224,256,71.559,256,71.559s-18.75,1.665-29.707-9.979c-10.281-10.926-27.061,10.422-25.531,38.538
	c0.168,3.089-2.232,5.706-5.323,5.706h-0.064c-3.659,0-6.781-2.628-7.416-6.235C184.157,77.963,177.765,7.5,256,7.5
	s71.843,70.463,68.039,92.088C323.405,103.195,320.283,105.823,316.624,105.823z"/>
<path style="fill:#63352B;" d="M256,7.5c-4.081,0-7.918,0.202-11.55,0.569c42.401,4.277,55.129,32.355,57.848,57.332
	c5.597,7.382,9.734,20.132,8.94,34.716c-0.168,3.089,2.232,5.706,5.322,5.706h0.064c3.659,0,6.781-2.629,7.416-6.235
	C327.842,77.963,334.234,7.5,256,7.5z"/>
<path style="fill:#D6C9AD;" d="M319.658,459.911H189.712c-5.625,0-10.184-4.56-10.184-10.184v-10.033h150.315v10.033
	C329.842,455.351,325.283,459.911,319.658,459.911z"/>
<path style="fill:#C2AE86;" d="M309.045,439.694v10.028c0,5.628-4.558,10.189-10.18,10.189h20.797c5.622,0,10.18-4.562,10.18-10.189
	v-10.028L309.045,439.694L309.045,439.694z"/>
<path style="fill:#F6F1DD;" d="M276.454,439.694h-43.539c-12.03,0-21.783-9.753-21.783-21.783v-50.47h87.105v50.47
	C298.238,429.941,288.484,439.694,276.454,439.694z"/>
<path style="fill:#D6C9AD;" d="M277.329,367.441v50.461c0,12.036-9.748,21.792-21.774,21.792h20.908
	c12.025,0,21.774-9.757,21.774-21.792v-50.461H277.329z"/>
<rect x="217.09" y="222.49" style="fill:#E36552;" width="77.82" height="37.15"/>
<rect x="274" y="222.49" style="fill:#C95249;" width="20.908" height="37.15"/>
<path style="fill:#F6CC65;" d="M288.224,475.936c-0.383,8.213-7.45,14.533-15.664,14.533H170.265
	c-27.483,0-49.762-22.298-49.762-49.805v-76.266h50.734v66.326c0,4.952,4.011,8.967,8.959,8.967h19.518
	c5.243,0,9.492,4.254,9.492,9.501l0,0c0,5.935,4.807,10.746,10.737,10.746h53.045C281.657,459.938,288.633,467.169,288.224,475.936z
	"/>
<g>
	<path style="fill:#E89D41;" d="M159.351,439.691h19.518c5.242,0,9.492,4.254,9.492,9.501c0,5.935,4.807,10.746,10.736,10.746
		h20.846c-5.93,0-10.737-4.811-10.737-10.746c0-5.247-4.25-9.501-9.492-9.501h-19.518c-4.948,0-8.959-4.015-8.959-8.967v-66.326
		h-20.846v66.326C150.392,435.677,154.403,439.691,159.351,439.691z"/>
	<path style="fill:#E89D41;" d="M272.988,459.938h-20.846c8.669,0,15.644,7.231,15.236,15.998
		c-0.383,8.212-7.45,14.533-15.664,14.533h20.846c8.215,0,15.281-6.321,15.664-14.533
		C288.633,467.169,281.657,459.938,272.988,459.938z"/>
</g>
<g>
	<path style="fill:#E36552;" d="M173.604,364.397H113.5v-59.023c0-31.375,25.435-56.81,56.81-56.81h12.17v106.957
		C182.481,360.423,178.507,364.397,173.604,364.397z"/>
	<path style="fill:#E36552;" d="M339.053,364.397H398.5v-58.998c0-31.389-25.424-56.835-56.786-56.835h-11.533v106.953
		C330.181,360.421,334.153,364.397,339.053,364.397z"/>
</g>
<g>
	<path style="fill:#C95249;" d="M170.286,248.564c-2.963,0-5.873,0.229-8.714,0.667v106.286c0,4.905-3.972,8.88-8.873,8.88h20.908
		c4.9,0,8.873-3.976,8.873-8.88V248.564H170.286z"/>
	<path style="fill:#C95249;" d="M341.714,248.564h-11.533v0.785c26.899,4.475,47.411,27.859,47.411,56.05v58.998H398.5v-58.998
		C398.5,274.01,373.076,248.564,341.714,248.564z"/>
</g>
<ellipse cx="256" cy="290.74" rx="8.495" ry="8.502"/>
<ellipse cx="256" cy="323.97" rx="8.495" ry="8.502"/>
<path d="M200.313,331.876h25.911c4.142,0,7.5-3.357,7.5-7.5s-3.358-7.5-7.5-7.5h-25.911c-4.142,0-7.5,3.357-7.5,7.5
	S196.171,331.876,200.313,331.876z"/>
<path d="M341.714,241.063h-0.893c-0.02,0-0.038-0.003-0.058-0.003h-38.351v-18.572c0-4.143-3.358-7.5-7.5-7.5h-6.531v-23.733
	c21.929-11.653,36.903-34.741,36.903-61.273v-19.399c3.153-2.225,5.43-5.647,6.142-9.694c1.889-10.735,4.197-31.752-1.566-51.887
	c-1.14-3.983-5.294-6.29-9.274-5.146c-3.982,1.14-6.286,5.292-5.146,9.273c3.318,11.591,3.476,23.728,2.69,33.324
	c-2.271-16.113-9.831-29.623-19.861-33.92c-6.402-2.739-13.14-1.28-18.023,3.907c-8.259,8.778-23.458,7.658-23.581,7.648
	c-0.441-0.039-0.886-0.039-1.327,0c-0.148,0.015-15.351,1.099-23.581-7.648c-4.882-5.188-11.62-6.647-18.022-3.907
	c-10.054,4.307-17.625,17.869-19.877,34.032c-1.229-15.336-0.179-37.644,12.794-53.098C216.936,21.213,233.54,15,256,15
	c16.578,0,30.033,3.39,39.991,10.074c3.44,2.312,8.099,1.393,10.407-2.046c2.309-3.439,1.392-8.099-2.047-10.407
	C291.876,4.246,275.609,0,256,0c-27.1,0-47.569,8.015-60.839,23.822c-21,25.018-17.197,62.228-14.587,77.064
	c0.711,4.042,2.983,7.462,6.142,9.687v19.408c0,18.521,7.206,35.932,20.291,49.026c4.973,4.977,10.57,9.099,16.613,12.304v23.677
	h-6.531c-4.142,0-7.5,3.357-7.5,7.5v18.572h-38.351c-0.02,0-0.038,0.003-0.058,0.003h-0.893c-35.447,0-64.286,28.86-64.286,64.335
	v58.999c0,3.975,3.094,7.218,7.003,7.475v68.792c0,29.388,22.224,53.667,50.734,56.921v6.915c0,4.143,3.358,7.5,7.5,7.5h169.524
	h0.001h50.733c4.142,0,7.5-3.357,7.5-7.5v-67.618c0-4.143-3.358-7.5-7.5-7.5s-7.5,3.357-7.5,7.5V497h-35.733V371.897h35.733v25.878
	c0,4.143,3.358,7.5,7.5,7.5s7.5-3.357,7.5-7.5v-25.903c3.91-0.256,7.004-3.5,7.004-7.475v-58.999
	C406,269.924,377.161,241.063,341.714,241.063z M218.633,417.911v-42.97h72.105v2.949c0,0.02-0.003,0.039-0.003,0.058
	s0.003,0.039,0.003,0.058v35.615c0,0.02-0.003,0.039-0.003,0.058s0.003,0.039,0.003,0.058v4.173c0,7.862-6.386,14.259-14.245,14.28
	h-43.616C225.019,432.17,218.633,425.773,218.633,417.911z M305.738,385.448h9.136v15.32c0,2.983-2.423,5.411-5.4,5.411h-3.735
	v-20.731H305.738z M216.707,449.191c0-0.678-0.051-1.343-0.128-2h16.26c0.026,0,0.051,0.002,0.077,0.002h43.539
	c0.026,0,0.051-0.002,0.077-0.002h45.806v2.534c0,1.479-1.199,2.681-2.672,2.681H219.635
	C217.997,452.248,216.707,450.875,216.707,449.191z M295.715,476.285c0.144-3.081-0.321-6.083-1.337-8.879h25.288
	c5.462,0,10.351-2.494,13.595-6.401V497h-53.975C288.467,494.286,295.255,486.154,295.715,476.285z M224.588,248.58
	c0-0.007,0.001-0.013,0.001-0.02s-0.001-0.013-0.001-0.02v-18.553h62.823v18.553c0,0.007-0.001,0.013-0.001,0.02
	s0.001,0.013,0.001,0.02v3.556h-62.823L224.588,248.58L224.588,248.58z M201.716,129.981V111.67
	c1.109-0.623,2.129-1.408,3.015-2.344c2.43-2.566,3.713-6.071,3.521-9.616c-0.795-14.604,4.058-26.577,8.903-31.521
	c1.668-1.702,2.797-2.027,2.984-2.027c0,0,0.001,0,0.002,0c0.002,0.001,0.25,0.088,0.69,0.557C233,79.652,252.133,79.291,256,79.075
	c3.865,0.216,23,0.577,35.168-12.356c0.423-0.45,0.668-0.549,0.663-0.552c0.239,0.023,1.344,0.319,3.014,2.022
	c4.845,4.943,9.698,16.916,8.903,31.521c-0.193,3.545,1.09,7.05,3.521,9.616c0.885,0.935,1.905,1.719,3.015,2.342v18.313
	c0,29.962-24.352,54.338-54.284,54.338c-7.679,0-15.108-1.6-21.928-4.616c-0.017-0.007-0.033-0.015-0.05-0.022
	c-6.037-2.677-11.596-6.461-16.405-11.274C207.363,158.144,201.716,144.497,201.716,129.981z M238.619,197.122
	c5.609,1.444,11.436,2.198,17.381,2.198c6.001,0,11.825-0.77,17.381-2.211v17.88h-34.762L238.619,197.122L238.619,197.122z
	 M121,305.398c0-27.203,22.11-49.335,49.286-49.335h4.695v33.538c0,4.143,3.358,7.5,7.5,7.5s7.5-3.357,7.5-7.5V256.06h19.607v3.575
	c0,4.143,3.358,7.5,7.5,7.5h77.823c4.142,0,7.5-3.357,7.5-7.5v-3.575h20.269v99.456c0,6.99,4.407,12.955,10.581,15.302v62.205
	c-1.027-0.528-2.189-0.832-3.423-0.832h-27.832c1.866-3.326,3.103-7.05,3.545-11.012h3.922c11.249,0,20.4-9.156,20.4-20.411v-16.73
	c0-7.493-6.094-13.59-13.584-13.59h-10.552v-3.007c0-4.143-3.358-7.5-7.5-7.5h-87.105c-4.142,0-7.5,3.357-7.5,7.5v50.47
	c0,5.183,1.359,10.053,3.732,14.28h-7.65h-19.518c-0.805,0-1.459-0.658-1.459-1.467v-59.663c6.521-2.16,11.244-8.307,11.244-15.545
	v-19.478c0-4.143-3.358-7.5-7.5-7.5s-7.5,3.357-7.5,7.5v19.478c0,0.762-0.616,1.381-1.373,1.381H121V305.398z M128.003,440.664
	v-68.766h35.734v58.826c0,0.259,0.013,0.516,0.039,0.769c0.393,8.465,7.191,15.266,15.652,15.659
	c0.253,0.026,0.509,0.039,0.768,0.039h19.518c1.099,0,1.992,0.897,1.992,2c0,9.487,7.277,17.299,16.538,18.16
	c0.287,0.033,0.577,0.055,0.872,0.055h0.209c0.206,0.007,0.409,0.031,0.617,0.031h53.045c2.138,0,4.128,0.853,5.605,2.399
	c1.479,1.55,2.239,3.592,2.138,5.749c-0.19,4.071-3.856,7.383-8.172,7.383H170.265C146.962,482.969,128.003,463.991,128.003,440.664
	z M340.76,356.897h-1.708c-0.757,0-1.373-0.619-1.373-1.381v-99.453h4.033c27.176,0,49.286,22.132,49.286,49.335v51.499
	L340.76,356.897L340.76,356.897z"/>
<g>
</g>
<g>
</g>
<g>
</g>
<g>
</g>
<g>
</g>
<g>
</g>
<g>
</g>
<g>
</g>
<g>
</g>
<g>
</g>
<g>
</g>
<g>
</g>
<g>
</g>
<g>
</g>
<g>
</g>
</svg>
